<mxfile host="app.diagrams.net" modified="2023-07-26T01:41:10.349Z" agent="Mozilla/5.0 (Windows NT 10.0; Win64; x64) AppleWebKit/537.36 (KHTML, like Gecko) Chrome/115.0.0.0 Safari/537.36" etag="uYdFxKSmQGj4TAd-msjE" version="21.6.5" type="github">
  <diagram name="Page-1" id="7hVDUBUcFsJ8cG6uD65i">
    <mxGraphModel dx="2350" dy="850" grid="1" gridSize="10" guides="1" tooltips="1" connect="1" arrows="1" fold="1" page="1" pageScale="1" pageWidth="850" pageHeight="1100" math="0" shadow="0">
      <root>
        <mxCell id="0" />
        <mxCell id="1" parent="0" />
        <mxCell id="APZpNofsmR_TJW78a4NC-2" value="Adapter" style="rounded=0;whiteSpace=wrap;html=1;align=right;labelPosition=left;verticalLabelPosition=top;verticalAlign=bottom;fontStyle=1;fontSize=20;" parent="1" vertex="1">
          <mxGeometry x="-10" y="50" width="960" height="500" as="geometry" />
        </mxCell>
        <mxCell id="APZpNofsmR_TJW78a4NC-9" value="ViewHolder class: contains variables regarding the components of interest&lt;br&gt;&amp;nbsp;of item UI. &lt;br&gt;NOTE: It is a good practice to make it an inner class but we can also make it as a separate class in the same file" style="rounded=0;whiteSpace=wrap;html=1;" parent="1" vertex="1">
          <mxGeometry y="370" width="300" height="140" as="geometry" />
        </mxCell>
        <mxCell id="APZpNofsmR_TJW78a4NC-5" value="onCreateViewHolder(): Inflates and makes an object &quot;view&quot; of the item&#39;s xml and returns a ViewHolder object &lt;br&gt;like this: return ViewHolder(view) : called only single time when the item is created." style="rounded=0;whiteSpace=wrap;html=1;labelPosition=center;verticalLabelPosition=middle;align=center;verticalAlign=top;" parent="1" vertex="1">
          <mxGeometry x="350" y="80" width="590" height="150" as="geometry" />
        </mxCell>
        <mxCell id="APZpNofsmR_TJW78a4NC-10" value="&lt;div style=&quot;&quot;&gt;&lt;span style=&quot;background-color: initial;&quot;&gt;Data Souce(e.g. ArrayList, list, etc)&lt;/span&gt;&lt;/div&gt;&lt;div style=&quot;&quot;&gt;&lt;span style=&quot;background-color: initial;&quot;&gt;&lt;br&gt;&lt;/span&gt;&lt;/div&gt;&lt;div style=&quot;&quot;&gt;&lt;span style=&quot;background-color: initial;&quot;&gt;NOTE: There are 2 ways to send this Data Source to the&amp;nbsp;&lt;/span&gt;&lt;/div&gt;&lt;div style=&quot;&quot;&gt;&lt;span style=&quot;background-color: initial;&quot;&gt;adapter:&lt;/span&gt;&lt;/div&gt;&lt;div style=&quot;&quot;&gt;&lt;span style=&quot;background-color: initial;&quot;&gt;&lt;br&gt;&lt;/span&gt;&lt;/div&gt;&lt;div style=&quot;&quot;&gt;&lt;span style=&quot;background-color: initial;&quot;&gt;1) As constructor parameter(Anuj bhaiya news app): less preferred as we cannot update the data source afterwards&lt;/span&gt;&lt;/div&gt;&lt;div style=&quot;&quot;&gt;&lt;span style=&quot;background-color: initial;&quot;&gt;&lt;br&gt;&lt;/span&gt;&lt;/div&gt;&lt;div style=&quot;&quot;&gt;&lt;span style=&quot;background-color: initial;&quot;&gt;2) Make a separate variable inside the adpater and make a setter function to update the variable.&lt;/span&gt;&lt;/div&gt;&lt;div style=&quot;&quot;&gt;&lt;span style=&quot;background-color: initial;&quot;&gt;&lt;br&gt;&lt;/span&gt;&lt;/div&gt;" style="text;html=1;strokeColor=none;fillColor=none;align=left;verticalAlign=middle;whiteSpace=wrap;rounded=0;" parent="1" vertex="1">
          <mxGeometry y="73.75" width="340" height="162.5" as="geometry" />
        </mxCell>
        <mxCell id="APZpNofsmR_TJW78a4NC-12" value="Item&#39;s xml" style="rounded=0;whiteSpace=wrap;html=1;" parent="1" vertex="1">
          <mxGeometry x="780" y="150" width="120" height="60" as="geometry" />
        </mxCell>
        <mxCell id="APZpNofsmR_TJW78a4NC-14" value="getItemCount(): notifies the adapter the size of the data source." style="rounded=0;whiteSpace=wrap;html=1;fontSize=16;" parent="1" vertex="1">
          <mxGeometry x="350" y="250" width="590" height="60" as="geometry" />
        </mxCell>
        <mxCell id="APZpNofsmR_TJW78a4NC-17" value="&lt;h1&gt;Concept of Recycling&lt;/h1&gt;&lt;p&gt;onCreateViewHolder is called when you need a new View. If there is an available Recycled View that can be provided and be bound with new data, then onBindViewHolder is called.&lt;br&gt;&lt;/p&gt;" style="text;html=1;strokeColor=none;fillColor=none;spacing=5;spacingTop=-20;whiteSpace=wrap;overflow=hidden;rounded=0;fontSize=16;" parent="1" vertex="1">
          <mxGeometry x="440" y="570" width="510" height="150" as="geometry" />
        </mxCell>
        <mxCell id="APZpNofsmR_TJW78a4NC-19" value="onBindViewHolder() : bridge between the data from data source and the UI elements. Implementation logic of data binding is implemented here.&lt;br&gt;&lt;br&gt;NOTE: onBindViewHolder() accesses UI elements using the ViewHolder" style="rounded=0;whiteSpace=wrap;html=1;fontSize=16;" parent="1" vertex="1">
          <mxGeometry x="350" y="330" width="590" height="200" as="geometry" />
        </mxCell>
      </root>
    </mxGraphModel>
  </diagram>
</mxfile>
